<svg xmlns="http://www.w3.org/2000/svg" width="420" height="760" viewBox="0 0 420 760" role="img" aria-label="Synthetic bank security alert screenshot">
  <defs>
    <linearGradient id="bg" x1="0" y1="0" x2="1" y2="1">
      <stop offset="0" stop-color="#09111f"/>
      <stop offset="1" stop-color="#111827"/>
    </linearGradient>
    <filter id="shadow" x="-20%" y="-20%" width="140%" height="140%">
      <feDropShadow dx="0" dy="16" stdDeviation="18" flood-color="#000" flood-opacity=".45"/>
    </filter>
  </defs>
  <rect width="420" height="760" rx="44" fill="url(#bg)"/>
  <rect x="24" y="24" width="372" height="712" rx="34" fill="#f8fafc" filter="url(#shadow)"/>
  <rect x="24" y="24" width="372" height="76" rx="34" fill="#123f8c"/>
  <text x="56" y="72" font-family="Arial, sans-serif" font-size="24" font-weight="700" fill="#fff">PayPal Security</text>
  <circle cx="344" cy="62" r="18" fill="#fff" opacity=".2"/>
  <text x="56" y="146" font-family="Arial, sans-serif" font-size="15" fill="#64748b">Today 09:42</text>
  <rect x="52" y="174" width="316" height="210" rx="24" fill="#eef2ff"/>
  <text x="78" y="216" font-family="Arial, sans-serif" font-size="22" font-weight="700" fill="#0f172a">Security alert</text>
  <text x="78" y="252" font-family="Arial, sans-serif" font-size="17" fill="#334155">Your account is limited.</text>
  <text x="78" y="282" font-family="Arial, sans-serif" font-size="17" fill="#334155">Confirm your identity</text>
  <text x="78" y="312" font-family="Arial, sans-serif" font-size="17" fill="#334155">within 30 minutes.</text>
  <rect x="78" y="336" width="214" height="34" rx="17" fill="#dc2626"/>
  <text x="96" y="359" font-family="Arial, sans-serif" font-size="14" font-weight="700" fill="#fff">URGENT VERIFICATION</text>
  <rect x="52" y="418" width="316" height="88" rx="18" fill="#fff7ed" stroke="#fed7aa"/>
  <text x="76" y="452" font-family="Arial, sans-serif" font-size="14" fill="#9a3412">https://paypal-account-review.net/login</text>
  <text x="76" y="480" font-family="Arial, sans-serif" font-size="14" fill="#9a3412">Do not close this window.</text>
  <rect x="52" y="548" width="316" height="54" rx="16" fill="#123f8c"/>
  <text x="128" y="582" font-family="Arial, sans-serif" font-size="16" font-weight="700" fill="#fff">Verify identity</text>
  <text x="56" y="680" font-family="Arial, sans-serif" font-size="12" fill="#94a3b8">Synthetic TrustLens fixture - no real bank message</text>
</svg>
