<svg xmlns="http://www.w3.org/2000/svg" width="420" height="760" viewBox="0 0 420 760" role="img" aria-label="Synthetic QR phishing screenshot">
  <defs>
    <linearGradient id="phoneBg" x1="0" y1="0" x2="1" y2="1">
      <stop offset="0" stop-color="#020617"/>
      <stop offset="1" stop-color="#172554"/>
    </linearGradient>
    <linearGradient id="cardBg" x1="0" y1="0" x2="1" y2="1">
      <stop offset="0" stop-color="#eff6ff"/>
      <stop offset="1" stop-color="#f8fafc"/>
    </linearGradient>
    <filter id="phoneShadow" x="-18%" y="-18%" width="136%" height="136%">
      <feDropShadow dx="0" dy="18" stdDeviation="18" flood-color="#000" flood-opacity=".32"/>
    </filter>
  </defs>
  <rect width="420" height="760" rx="44" fill="url(#phoneBg)"/>
  <rect x="26" y="24" width="368" height="712" rx="34" fill="#f8fafc" filter="url(#phoneShadow)"/>
  <rect x="26" y="24" width="368" height="92" rx="34" fill="#2563eb"/>
  <text x="58" y="72" font-family="Arial, sans-serif" font-size="23" font-weight="800" fill="#fff">Microsoft 365</text>
  <text x="58" y="96" font-family="Arial, sans-serif" font-size="12" font-weight="700" fill="#bfdbfe">SECURITY NOTICE</text>
  <text x="58" y="160" font-family="Arial, sans-serif" font-size="21" font-weight="800" fill="#111827">Keep mailbox access</text>
  <text x="58" y="192" font-family="Arial, sans-serif" font-size="15" fill="#334155">Scan the code to confirm your password.</text>
  <rect x="72" y="224" width="276" height="276" rx="24" fill="#fff" stroke="#cbd5e1"/>
  <rect x="104" y="256" width="64" height="64" fill="#0f172a"/>
  <rect x="118" y="270" width="36" height="36" fill="#fff"/>
  <rect x="128" y="280" width="16" height="16" fill="#0f172a"/>
  <rect x="252" y="256" width="64" height="64" fill="#0f172a"/>
  <rect x="266" y="270" width="36" height="36" fill="#fff"/>
  <rect x="276" y="280" width="16" height="16" fill="#0f172a"/>
  <rect x="104" y="404" width="64" height="64" fill="#0f172a"/>
  <rect x="118" y="418" width="36" height="36" fill="#fff"/>
  <rect x="128" y="428" width="16" height="16" fill="#0f172a"/>
  <rect x="194" y="266" width="22" height="22" fill="#0f172a"/>
  <rect x="222" y="294" width="16" height="16" fill="#0f172a"/>
  <rect x="184" y="332" width="34" height="18" fill="#0f172a"/>
  <rect x="238" y="348" width="48" height="18" fill="#0f172a"/>
  <rect x="194" y="386" width="22" height="22" fill="#0f172a"/>
  <rect x="228" y="416" width="70" height="18" fill="#0f172a"/>
  <rect x="286" y="386" width="18" height="18" fill="#0f172a"/>
  <rect x="58" y="528" width="304" height="78" rx="18" fill="url(#cardBg)" stroke="#bfdbfe"/>
  <text x="82" y="562" font-family="Arial, sans-serif" font-size="15" fill="#1e3a8a">Fallback link:</text>
  <text x="82" y="588" font-family="Arial, sans-serif" font-size="13" font-weight="700" fill="#1e40af">microsoft365-login-review.com</text>
  <rect x="58" y="636" width="304" height="48" rx="16" fill="#dc2626"/>
  <text x="111" y="666" font-family="Arial, sans-serif" font-size="15" font-weight="700" fill="#fff">Confirm in 10 minutes</text>
  <text x="56" y="706" font-family="Arial, sans-serif" font-size="12" fill="#94a3b8">Synthetic TrustLens fixture - local demo only</text>
</svg>
